<svg width="154" height="158" viewBox="0 0 154 158" fill="none" xmlns="http://www.w3.org/2000/svg">
<path d="M6.04824 27.7129L40.1376 6.74834L46.1381 16.1522L17.9187 32.501L46.1381 48.548L39.9202 58.2538L6.04824 37.3755V27.7129Z" fill="#FFD14B"/>
<path d="M107.795 109.716L113.882 99.924L147.884 120.802V130.551L114.012 151.429L107.795 142.155L136.058 125.677L107.795 109.716Z" fill="#FFD14B"/>
<path d="M154 0V64.7674H141.138V38.4557H111.955V64.7674H99.0935V0H111.955V26.1358H141.138V0H154Z" fill="#FFD14B"/>
<path d="M56.9467 150.784C56.1779 151.605 54.9657 152.456 53.3099 153.336C51.6541 154.157 49.7322 154.92 47.5443 155.624C45.4154 156.328 43.2274 156.885 40.9803 157.296C38.7332 157.765 36.6044 158 34.5938 158C29.2717 158 24.4817 157.237 20.2241 155.712C15.9664 154.128 12.3296 151.957 9.31371 149.2C6.29784 146.384 3.99159 143.069 2.39495 139.256C0.798318 135.443 0 131.278 0 126.76C0 120.835 0.88702 115.702 2.66106 111.36C4.49423 106.96 6.94832 103.323 10.0233 100.449C13.1575 97.5152 16.7351 95.3446 20.7563 93.9366C24.8366 92.5286 29.0943 91.8246 33.5294 91.8246C37.7279 91.8246 41.5717 92.2939 45.0606 93.2326C48.5496 94.1126 51.5063 95.2272 53.9308 96.5765L49.7618 108.456C48.6974 107.87 47.2782 107.283 45.5041 106.696C43.7301 106.11 41.9265 105.64 40.0933 105.288C38.2601 104.878 36.6339 104.672 35.2147 104.672C31.6666 104.672 28.5325 105.112 25.8123 105.992C23.0921 106.872 20.7858 108.192 18.8935 109.952C17.0603 111.712 15.6707 113.912 14.7245 116.552C13.7784 119.134 13.3053 122.155 13.3053 125.616C13.3053 128.667 13.8375 131.424 14.9019 133.888C15.9664 136.294 17.4447 138.347 19.337 140.048C21.2885 141.749 23.5652 143.04 26.1671 143.92C28.8281 144.8 31.7553 145.24 34.9486 145.24C36.7818 145.24 38.4671 145.123 40.0046 144.888C41.5421 144.595 42.8431 144.155 43.9075 143.568V135.736H32.6423V123.416H56.9467V150.784Z" fill="#FFD14B"/>
</svg>
